<svg xmlns="http://www.w3.org/2000/svg">
<symbol id="icon-search" viewBox="0 0 32 32">
<path fill="#fff" style="fill: var(--color1, #fff)" d="M31.609 29.725l-9.1-9.1c1.763-2.177 2.824-4.944 2.824-7.957 0-6.984-5.683-12.667-12.667-12.667s-12.666 5.683-12.666 12.666c0 6.984 5.683 12.667 12.667 12.667 3.013 0 5.78-1.061 7.957-2.824l9.1 9.1c0.26 0.26 0.601 0.391 0.943 0.391s0.683-0.131 0.943-0.391c0.521-0.521 0.521-1.364-0-1.885zM12.667 22.668c-5.515 0-10-4.485-10-10s4.485-10 10-10c5.515 0 10 4.485 10 10s-4.485 10-10 10z"></path>
</symbol>
<symbol id="icon-account" viewBox="0 0 32 32">
<path fill="#fff" style="fill: var(--color1, #fff)" d="M5.002 27.208c0.058-3.687 1.206-7.040 3.249-9.467 2.030-2.413 4.782-3.741 7.749-3.741s5.719 1.329 7.749 3.741c2.040 2.425 3.188 5.773 3.248 9.455-1.154 0.578-5.928 2.803-10.998 2.803-5.482 0-9.928-2.212-10.998-2.792z"></path>
<path fill="#fff" style="fill: var(--color1, #fff)" d="M16 13c-3.038 0-5.5-2.462-5.5-5.5s2.462-5.5 5.5-5.5c3.038 0 5.5 2.462 5.5 5.5s-2.462 5.5-5.5 5.5z"></path>
</symbol>
<symbol id="icon-cart" viewBox="0 0 32 32">
<path fill="#fff" style="fill: var(--color1, #fff)" d="M10.375 20.688h16.938c0.419 0 0.787-0.277 0.901-0.68l3.75-13.125c0.081-0.283 0.025-0.587-0.152-0.822s-0.454-0.373-0.749-0.373h-22.852l-0.67-3.016c-0.095-0.429-0.476-0.734-0.916-0.734h-5.688c-0.518 0-0.938 0.419-0.938 0.938s0.419 0.938 0.938 0.938h4.935l3.386 15.234c-0.996 0.433-1.696 1.425-1.696 2.578 0 1.551 1.262 2.812 2.813 2.812h16.938c0.518 0 0.937-0.419 0.937-0.937s-0.419-0.938-0.937-0.938h-16.938c-0.516 0-0.938-0.42-0.938-0.937s0.421-0.938 0.938-0.938z"></path>
<path fill="#fff" style="fill: var(--color1, #fff)" d="M9.438 27.25c0 1.551 1.262 2.812 2.813 2.812s2.813-1.261 2.813-2.812c0-1.551-1.262-2.812-2.813-2.812s-2.813 1.262-2.813 2.812z"></path>
<path fill="#fff" style="fill: var(--color1, #fff)" d="M22.625 27.25c0 1.551 1.262 2.812 2.813 2.812s2.812-1.261 2.812-2.812c0-1.551-1.261-2.812-2.812-2.812s-2.813 1.262-2.813 2.812z"></path>
</symbol>
<symbol id="icon-menu" viewBox="0 0 32 32">
<path fill="#fff" style="fill: var(--color1, #fff)" d="M4.686 4.687c3.022-3.022 7.040-4.686 11.314-4.686s8.292 1.664 11.314 4.686c3.022 3.022 4.686 7.040 4.686 11.314s-1.664 8.292-4.686 11.314c-3.022 3.022-7.040 4.686-11.314 4.686s-8.292-1.664-11.314-4.686c-3.022-3.022-4.686-7.040-4.686-11.314s1.664-8.292 4.686-11.314zM16 30.073c7.759 0 14.072-6.313 14.072-14.072s-6.313-14.072-14.072-14.072-14.072 6.313-14.072 14.072c0 7.759 6.313 14.072 14.072 14.072z"></path>
<path fill="#fff" style="fill: var(--color1, #fff)" d="M7.197 15.036h17.607c0.532 0 0.964 0.432 0.964 0.964s-0.432 0.964-0.964 0.964h-17.607c-0.532 0-0.964-0.432-0.964-0.964s0.431-0.964 0.964-0.964z"></path>
<path fill="#fff" style="fill: var(--color1, #fff)" d="M8.482 9.735h15.036c0.532 0 0.964 0.432 0.964 0.964s-0.432 0.964-0.964 0.964h-15.036c-0.532 0-0.964-0.432-0.964-0.964s0.432-0.964 0.964-0.964z"></path>
<path fill="#fff" style="fill: var(--color1, #fff)" d="M8.482 20.337h15.036c0.532 0 0.964 0.432 0.964 0.964s-0.432 0.964-0.964 0.964h-15.036c-0.532 0-0.964-0.432-0.964-0.964s0.432-0.964 0.964-0.964z"></path>
</symbol>
<symbol id="icon-close" viewBox="0 0 32 32">
<path d="M4.686 4.687c3.022-3.022 7.040-4.686 11.314-4.686s8.292 1.664 11.314 4.686c3.022 3.022 4.686 7.040 4.686 11.314s-1.664 8.292-4.686 11.314c-3.022 3.022-7.040 4.686-11.314 4.686s-8.292-1.664-11.314-4.686c-3.022-3.022-4.686-7.040-4.686-11.314s1.664-8.292 4.686-11.314zM16 30.073c7.759 0 14.072-6.313 14.072-14.072s-6.313-14.072-14.072-14.072-14.072 6.313-14.072 14.072c0 7.759 6.313 14.072 14.072 14.072z"></path>
<path d="M17.256 16l5.34-5.34c0.348-0.347 0.348-0.909 0-1.256s-0.909-0.347-1.256 0l-5.34 5.34-5.34-5.34c-0.348-0.347-0.909-0.347-1.256 0s-0.348 0.909 0 1.256l5.34 5.34-5.34 5.34c-0.348 0.347-0.348 0.909 0 1.256 0.173 0.173 0.401 0.26 0.628 0.26s0.455-0.087 0.628-0.26l5.34-5.34 5.34 5.34c0.173 0.173 0.401 0.26 0.628 0.26s0.455-0.087 0.628-0.26c0.348-0.347 0.348-0.909 0-1.256l-5.34-5.34z"></path>
</symbol>
<symbol id="icon-arrows" viewBox="0 0 64 32">
<path d="M30.369 1.812l-27.411 25.373c-0.898 0.831-0.896 2.177 0.005 3.007s2.359 0.827 3.258-0.004l25.78-23.863 25.78 23.864c0.898 0.831 2.356 0.833 3.257 0.004 0.452-0.416 0.678-0.961 0.678-1.506 0-0.544-0.224-1.087-0.673-1.502l-27.41-25.373c-0.432-0.4-1.019-0.625-1.631-0.625s-1.199 0.225-1.631 0.625z"></path>
</symbol>
<symbol id="icon-arrow-left" viewBox="0 0 18 32">
<path d="M0.606 16.878l14.801 14.76c0.485 0.483 1.27 0.483 1.754-0.002s0.483-1.271-0.002-1.754l-13.92-13.882 13.92-13.881c0.485-0.484 0.486-1.269 0.003-1.754-0.243-0.243-0.561-0.365-0.879-0.365s-0.634 0.121-0.876 0.362l-14.801 14.76c-0.234 0.232-0.365 0.549-0.365 0.878s0.131 0.645 0.365 0.878z"></path>
</symbol>
<symbol id="icon-arrow-right" viewBox="0 0 18 32">
<path d="M16.918 15.122l-14.801-14.76c-0.485-0.483-1.27-0.482-1.754 0.003s-0.482 1.27 0.003 1.754l13.92 13.882-13.92 13.881c-0.485 0.484-0.486 1.269-0.003 1.754 0.243 0.243 0.561 0.365 0.879 0.365s0.634-0.121 0.876-0.362l14.801-14.76c0.234-0.232 0.365-0.549 0.365-0.878s-0.131-0.645-0.365-0.878z"></path>
</symbol>
<symbol id="icon-email" viewBox="0 0 47 32">
<path fill="#fff" style="fill: var(--color1, #fff)" d="M30.854 16.239l15.692 9.92v-20.259l-15.692 10.339z"></path>
<path fill="#fff" style="fill: var(--color1, #fff)" d="M0 5.9v20.259l15.692-9.92-15.692-10.339z"></path>
<path fill="#fff" style="fill: var(--color1, #fff)" d="M43.636 0h-40.727c-1.452 0-2.604 1.082-2.822 2.476l23.185 15.276 23.185-15.276c-0.218-1.393-1.37-2.476-2.822-2.476z"></path>
<path fill="#fff" style="fill: var(--color1, #fff)" d="M28.189 17.996l-4.116 2.711c-0.244 0.16-0.521 0.239-0.8 0.239s-0.556-0.079-0.8-0.239l-4.116-2.714-18.263 11.552c0.224 1.382 1.37 2.455 2.816 2.455h40.727c1.446 0 2.592-1.073 2.816-2.455l-18.263-11.549z"></path>
</symbol>
<symbol id="icon-inst" viewBox="0 0 32 32">
<path fill="#fff" style="fill: var(--color1, #fff)" d="M23.169 0h-14.338c-4.869 0-8.831 3.962-8.831 8.831v14.338c0 4.869 3.961 8.831 8.831 8.831h14.338c4.87 0 8.831-3.962 8.831-8.831v-14.338c0-4.869-3.961-8.831-8.831-8.831zM29.161 23.169c0 3.304-2.688 5.992-5.992 5.992h-14.338c-3.304 0-5.991-2.688-5.991-5.992v-14.338c0-3.304 2.688-5.992 5.991-5.992h14.338c3.304 0 5.992 2.688 5.992 5.992v14.338h0z"></path>
<path fill="#fff" style="fill: var(--color1, #fff)" d="M16 7.755c-4.547 0-8.246 3.699-8.246 8.246s3.699 8.245 8.246 8.245c4.547 0 8.245-3.699 8.245-8.245s-3.699-8.246-8.245-8.246zM16 21.406c-2.981 0-5.406-2.425-5.406-5.406s2.425-5.406 5.406-5.406c2.981 0 5.406 2.425 5.406 5.406s-2.425 5.406-5.406 5.406z"></path>
<path fill="#fff" style="fill: var(--color1, #fff)" d="M24.591 5.347c-0.547 0-1.084 0.221-1.471 0.609-0.388 0.386-0.611 0.924-0.611 1.473 0 0.547 0.223 1.085 0.611 1.473 0.386 0.386 0.924 0.609 1.471 0.609 0.549 0 1.084-0.223 1.473-0.609 0.388-0.388 0.61-0.926 0.61-1.473 0-0.549-0.221-1.086-0.61-1.473-0.386-0.388-0.924-0.609-1.473-0.609z"></path>
</symbol>
<symbol id="icon-facebook" viewBox="0 0 17 32">
<path fill="#fff" style="fill: var(--color1, #fff)" d="M13.896 5.313h3.104v-5.088c-0.535-0.069-2.377-0.225-4.522-0.225-4.475 0-7.54 2.649-7.54 7.519v4.481h-4.938v5.688h4.938v14.312h6.054v-14.311h4.738l0.752-5.688h-5.492v-3.919c0.001-1.644 0.472-2.769 2.905-2.769z"></path>
</symbol>
<symbol id="icon-twitter" viewBox="0 0 39 32">
<path fill="#fff" style="fill: var(--color1, #fff)" d="M39.385 3.788c-1.465 0.642-3.025 1.068-4.652 1.275 1.674-0.999 2.951-2.57 3.552-4.463-1.561 0.93-3.284 1.588-5.12 1.954-1.482-1.578-3.594-2.555-5.898-2.555-4.47 0-8.069 3.628-8.069 8.076 0 0.64 0.054 1.255 0.187 1.841-6.713-0.327-12.652-3.545-16.642-8.446-0.697 1.209-1.105 2.592-1.105 4.081 0 2.796 1.44 5.275 3.586 6.71-1.297-0.025-2.57-0.401-3.648-0.994 0 0.025 0 0.057 0 0.089 0 3.924 2.799 7.183 6.469 7.934-0.657 0.18-1.374 0.266-2.117 0.266-0.517 0-1.039-0.030-1.529-0.138 1.046 3.198 4.015 5.548 7.545 5.625-2.747 2.149-6.235 3.444-10.011 3.444-0.662 0-1.297-0.030-1.932-0.111 3.577 2.306 7.815 3.623 12.386 3.623 14.858 0 22.981-12.308 22.981-22.976 0-0.357-0.012-0.702-0.030-1.044 1.602-1.137 2.949-2.558 4.047-4.192z"></path>
</symbol>
<symbol id="icon-plus" viewBox="0 0 29 32">
<path fill="#fff" style="fill: var(--color1, #fff)" d="M11.932 19h-7c-0.667 0-1.26-0.083-1.781-0.25-0.5-0.167-0.917-0.385-1.25-0.656-0.333-0.292-0.583-0.615-0.75-0.969s-0.25-0.719-0.25-1.094c0-0.375 0.083-0.74 0.25-1.094 0.188-0.375 0.448-0.698 0.781-0.969 0.354-0.292 0.792-0.521 1.313-0.688 0.521-0.188 1.125-0.281 1.813-0.281h6.875v-7.125c0-0.583 0.094-1.104 0.281-1.563 0.208-0.458 0.479-0.844 0.813-1.156 0.333-0.333 0.698-0.583 1.094-0.75s0.802-0.25 1.219-0.25c0.667 0 1.26 0.25 1.781 0.75 0.542 0.5 0.812 1.292 0.812 2.375v7.719h7.813c1.083 0 1.875 0.271 2.375 0.813 0.5 0.521 0.75 1.115 0.75 1.781 0 0.417-0.083 0.823-0.25 1.219s-0.417 0.76-0.75 1.094c-0.313 0.333-0.698 0.604-1.156 0.813-0.458 0.188-0.979 0.281-1.563 0.281h-7.219v6.969c0 0.688-0.094 1.292-0.281 1.812-0.167 0.521-0.396 0.958-0.688 1.313-0.271 0.333-0.594 0.594-0.969 0.781-0.354 0.167-0.719 0.25-1.094 0.25s-0.74-0.084-1.094-0.25c-0.354-0.167-0.677-0.417-0.969-0.75-0.271-0.333-0.49-0.75-0.656-1.25-0.167-0.521-0.25-1.115-0.25-1.781v-7.094z"></path>
</symbol>
<symbol id="icon-dash" viewBox="0 0 85 32">
<path fill="#fff" style="fill: var(--color1, #fff)" d="M69.667 4.667c0.993 0 2.139 0.115 3.438 0.344s2.483 0.688 3.552 1.375c1.069 0.611 1.986 1.49 2.75 2.635 0.764 1.069 1.146 2.521 1.146 4.354 0 1.528-0.191 3.094-0.573 4.698-0.306 1.528-0.993 2.941-2.063 4.24-0.993 1.222-2.444 2.253-4.354 3.094s-4.469 1.26-7.677 1.26h-47.552c-2.444 0-4.392-0.42-5.844-1.26-1.451-0.917-2.597-1.986-3.438-3.208-0.764-1.299-1.26-2.674-1.49-4.125s-0.344-2.75-0.344-3.896c0-0.993 0.115-2.024 0.344-3.094 0.229-1.146 0.726-2.177 1.49-3.094 0.764-0.993 1.872-1.795 3.323-2.406 1.528-0.611 3.514-0.917 5.958-0.917h51.333z"></path>
</symbol>
</svg>